<?xml version="1.0" encoding="UTF-8"?>
<!DOCTYPE svg PUBLIC "-//W3C//DTD SVG 1.1//EN" "http://www.w3.org/Graphics/SVG/1.1/DTD/svg11.dtd">
<svg xmlns="http://www.w3.org/2000/svg" version="1.1" width="16px" height="16px" style="shape-rendering:geometricPrecision; text-rendering:geometricPrecision; image-rendering:optimizeQuality; fill-rule:evenodd; clip-rule:evenodd" xmlns:xlink="http://www.w3.org/1999/xlink">
<g><path style="opacity:1" fill="#b0163c" d="M 13.5,5.5 C 11.2736,3.82002 9.60689,4.15335 8.5,6.5C 6.27789,6.97476 5.61123,7.97476 6.5,9.5C 5.85048,11.4352 5.51715,13.4352 5.5,15.5C 4.16667,15.5 2.83333,15.5 1.5,15.5C 0.949226,12.082 1.94923,8.91531 4.5,6C 2.84464,4.55575 2.17798,2.72241 2.5,0.5C 5.91394,0.735833 9.24727,1.4025 12.5,2.5C 13.1272,3.41683 13.4606,4.41683 13.5,5.5 Z"/></g>
<g><path style="opacity:1" fill="#e49454" d="M 13.5,5.5 C 13.6159,8.85994 13.9492,12.1933 14.5,15.5C 13.1667,15.5 11.8333,15.5 10.5,15.5C 10.7214,14.2652 11.3881,13.2652 12.5,12.5C 11.2342,11.6376 9.90082,10.9709 8.5,10.5C 7.83333,10.1667 7.16667,9.83333 6.5,9.5C 5.61123,7.97476 6.27789,6.97476 8.5,6.5C 9.60689,4.15335 11.2736,3.82002 13.5,5.5 Z"/></g>
<g><path style="opacity:1" fill="#443c3b" d="M 8.5,6.5 C 11.0009,6.51092 11.1676,7.17759 9,8.5C 8.53566,7.90558 8.36899,7.23891 8.5,6.5 Z"/></g>
<g><path style="opacity:1" fill="#5a2e3a" d="M 6.5,9.5 C 7.16667,9.83333 7.83333,10.1667 8.5,10.5C 7.83333,12.1667 7.16667,13.8333 6.5,15.5C 6.16667,15.5 5.83333,15.5 5.5,15.5C 5.51715,13.4352 5.85048,11.4352 6.5,9.5 Z"/></g>
<g><path style="opacity:1" fill="#c66a44" d="M 8.5,10.5 C 9.90082,10.9709 11.2342,11.6376 12.5,12.5C 11.3881,13.2652 10.7214,14.2652 10.5,15.5C 9.16667,15.5 7.83333,15.5 6.5,15.5C 7.16667,13.8333 7.83333,12.1667 8.5,10.5 Z"/></g>
</svg>
